<?xml version="1.0" standalone="no"?>
<!DOCTYPE svg PUBLIC "-//W3C//DTD SVG 20010904//EN"
 "http://www.w3.org/TR/2001/REC-SVG-20010904/DTD/svg10.dtd">
<svg version="1.0" xmlns="http://www.w3.org/2000/svg"
 width="400.000000pt" height="400.000000pt" viewBox="0 0 400.000000 400.000000"
 preserveAspectRatio="xMidYMid meet">
<metadata>
Created by potrace 1.11, written by Peter Selinger 2001-2013
</metadata>
<g transform="translate(0.000000,400.000000) scale(0.100000,-0.100000)"
fill="#000000" stroke="none">
<path d="M1829 3974 c-38 -26 -238 -242 -323 -348 -126 -156 -252 -376 -331
-576 -20 -52 -43 -102 -51 -111 -8 -8 -37 -105 -65 -215 -27 -109 -88 -345
-135 -523 -139 -532 -288 -1206 -340 -1531 -22 -140 -53 -408 -69 -597 -6 -68
-5 -73 13 -73 17 0 20 10 26 83 14 172 48 458 72 607 56 346 196 969 349 1555
57 220 118 454 134 519 17 66 37 127 44 135 7 9 28 57 46 106 102 279 260 528
493 773 54 57 98 107 98 112 0 5 32 32 72 60 71 50 71 50 37 50 -21 0 -49 -10
-70 -26z"/>
<path d="M2252 3718 c-7 -7 -12 -45 -12 -97 0 -68 -6 -107 -31 -186 -54 -176
-101 -295 -118 -305 -10 -5 -103 -14 -207 -20 -173 -11 -277 -9 -392 7 -39 5
-44 3 -40 -13 4 -22 35 -32 104 -33 l51 -1 36 -72 c21 -40 37 -80 37 -89 0 -9
7 -33 15 -52 55 -132 -45 -370 -241 -578 -101 -107 -111 -130 -101 -219 15
-123 118 -356 218 -491 127 -171 347 -366 569 -504 100 -62 318 -165 433 -205
50 -18 66 -28 62 -38 -5 -14 -23 -114 -40 -230 -7 -41 -8 -43 -25 -27 -20 18
-40 13 -40 -10 0 -8 6 -18 14 -22 8 -4 56 -46 106 -92 69 -63 94 -81 103 -72
8 8 -6 29 -59 84 l-71 72 8 55 c24 161 42 240 53 240 7 0 35 -7 62 -15 189
-58 477 -90 729 -82 211 7 273 16 418 64 86 28 107 39 107 54 0 11 -2 19 -4
19 -3 0 -46 -14 -97 -31 -50 -17 -122 -37 -158 -45 -93 -21 -448 -30 -592 -15
-457 47 -911 234 -1244 513 -113 94 -256 243 -317 328 -100 141 -198 380 -198
484 l0 56 77 82 c42 45 96 109 121 143 87 119 162 299 162 392 0 61 -25 154
-61 224 -16 32 -29 63 -29 69 0 6 48 10 133 10 159 0 317 16 333 33 13 13 83
193 86 217 0 8 4 -5 7 -29 6 -44 7 -44 96 -92 162 -87 438 -164 675 -189 58
-6 117 -13 133 -16 22 -5 27 -2 27 14 0 23 -6 24 -175 42 -212 23 -476 97
-625 173 l-85 44 2 84 c2 46 6 146 10 222 8 140 2 172 -25 145z"/>
<path d="M3061 3622 c-17 -32 -31 -171 -31 -305 0 -201 14 -218 225 -274 66
-17 108 -32 93 -32 -31 -1 -39 -25 -12 -35 26 -10 93 -7 112 5 14 9 37 6 100
-11 46 -12 82 -24 80 -25 -2 -2 -68 -6 -148 -9 -217 -9 -423 -27 -437 -38 -7
-6 -10 -15 -7 -20 6 -10 63 -8 230 8 l62 6 -20 -78 c-26 -103 -35 -313 -18
-395 34 -161 140 -235 257 -178 87 42 193 196 247 362 24 73 39 185 32 241
l-7 51 90 -90 c87 -85 91 -88 91 -60 0 23 -20 49 -112 139 l-113 111 -5 125
c-4 112 -7 125 -24 128 -17 4 -18 -4 -14 -131 3 -115 6 -139 22 -156 19 -21
19 -21 -12 -21 -17 0 -47 10 -65 23 -23 15 -115 43 -268 82 -354 88 -345 80
-342 283 1 75 9 173 17 217 7 44 12 83 9 88 -7 12 -22 8 -32 -11z m725 -758
c33 -175 -111 -515 -247 -584 -112 -58 -194 15 -220 196 -19 126 24 398 66
415 11 4 104 8 207 8 l187 1 7 -36z"/>
<path d="M2639 3563 c-21 -55 -39 -160 -46 -265 -5 -94 -4 -108 9 -108 12 0
18 15 23 63 12 122 26 213 41 265 8 29 12 57 9 62 -11 18 -25 11 -36 -17z"/>
<path d="M2385 3090 c-12 -19 6 -30 49 -30 49 0 61 7 45 27 -13 15 -85 18 -94
3z"/>
<path d="M2075 2999 c-216 -9 -273 -18 -259 -40 5 -9 39 -10 115 -6 60 4 109
6 109 4 0 -1 -9 -45 -20 -97 -27 -126 -37 -303 -21 -366 27 -109 94 -163 201
-164 121 0 237 50 297 128 76 100 154 489 107 536 -18 18 -144 19 -529 5z
m502 -116 c-10 -158 -80 -387 -134 -435 -45 -41 -136 -72 -224 -76 -84 -4 -86
-4 -122 27 -59 53 -71 99 -64 254 6 125 12 165 38 264 l11 42 62 4 c33 2 146
4 250 5 l189 2 -6 -87z"/>
<path d="M1597 1944 c-9 -10 40 -102 60 -112 25 -13 41 -5 90 39 48 44 47 44
101 25 22 -8 43 -12 46 -9 25 25 -26 53 -95 53 -31 0 -48 -8 -79 -36 -44 -40
-58 -38 -80 16 -12 28 -29 38 -43 24z"/>
<path d="M3241 1626 c-9 -11 -4 -20 21 -41 36 -30 69 -30 148 0 34 13 53 14
77 7 18 -5 34 -7 37 -4 15 14 3 31 -26 41 -33 10 -47 8 -145 -21 -39 -11 -45
-10 -72 10 -24 17 -31 19 -40 8z"/>
<path d="M1105 1288 c-23 -81 -53 -295 -66 -478 -18 -254 0 -682 32 -742 20
-36 32 -20 26 34 -44 375 -31 814 34 1121 11 53 17 102 14 107 -13 21 -25 8
-40 -42z"/>
<path d="M1800 1103 c0 -28 40 -426 45 -450 3 -13 12 -23 20 -23 20 0 19 26
-8 280 -19 177 -24 205 -39 208 -12 2 -18 -3 -18 -15z"/>
<path d="M2474 1099 c-12 -20 19 -29 106 -29 47 0 139 -7 205 -15 118 -14 150
-10 121 14 -33 27 -417 54 -432 30z"/>
<path d="M2410 796 c-81 -47 -378 -261 -500 -360 -147 -119 -486 -404 -499
-420 -12 -14 -10 -16 11 -16 16 0 64 34 144 101 346 294 695 563 847 653 70
41 67 43 92 -62 15 -65 35 -95 51 -79 6 6 -34 184 -48 210 -5 9 -12 17 -16 17
-4 0 -41 -20 -82 -44z"/>
<path d="M3271 663 c-37 -141 -40 -158 -31 -167 16 -16 27 3 53 96 17 61 21
90 14 97 -18 18 -26 13 -36 -26z"/>
<path d="M3305 599 c-12 -18 4 -24 136 -44 l131 -20 173 -265 c123 -188 180
-266 194 -268 12 -2 21 0 21 3 0 4 -42 71 -93 148 -52 78 -131 200 -177 272
-46 72 -86 133 -89 137 -5 6 -250 48 -280 48 -5 0 -13 -5 -16 -11z"/>
<path d="M2463 564 c-7 -20 4 -477 13 -517 8 -33 41 -34 36 -2 -2 11 -6 136
-9 278 -4 212 -8 257 -19 257 -8 0 -17 -7 -21 -16z"/>
<path d="M3188 437 c-151 -64 -185 -85 -160 -101 4 -2 72 22 151 55 79 33 146
58 148 55 3 -3 -29 -98 -71 -213 -49 -135 -72 -211 -66 -217 7 -7 14 -6 20 0
11 11 168 429 177 472 8 34 -13 28 -199 -51z"/>
<path d="M2108 345 c-6 -6 37 -264 46 -272 3 -3 11 -3 19 0 12 5 12 20 -4 104
-9 54 -20 115 -24 136 -5 33 -22 47 -37 32z"/>
<path d="M1894 216 c-13 -33 47 -206 71 -206 20 0 19 7 -10 94 -14 41 -25 86
-25 100 0 28 -26 37 -36 12z"/>
<path d="M3474 179 c-36 -70 -65 -162 -54 -173 6 -6 13 -6 19 0 15 16 81 186
75 195 -10 17 -24 9 -40 -22z"/>
<path d="M3610 34 c-13 -34 -13 -34 9 -34 19 0 31 18 31 46 0 24 -30 15 -40
-12z"/>
</g>
</svg>
